<svg id="a" xmlns="http://www.w3.org/2000/svg" viewBox="0 0 400 400">
    <defs>
        <style>.b{fill:#fff;}.c{fill:#231f20;}</style>
    </defs>
    <rect class="c" width="400" height="400"/>
    <path class="b" d="M247.9,36.22l-88.5,249.41h-44.16L26.91,36.22h42.6l53.34,156.27c1.62,4.55,3.38,10.07,5.28,16.55,1.91,6.48,3.69,13.02,5.37,19.62,1.67,6.6,2.97,12.45,3.9,17.57,.92-5.12,2.22-10.97,3.9-17.57,1.67-6.59,3.43-13.14,5.28-19.62,1.85-6.48,3.58-12.05,5.2-16.72L205.12,36.22h42.78Z"/><path class="b" d="M269.44,113.87c32.74,0,56.63,6.61,71.67,19.83,15.04,13.22,22.56,31.79,22.56,55.72,0,10.71-1.71,20.94-5.12,30.68-3.41,9.74-9,18.38-16.75,25.9-7.75,7.52-17.96,13.45-30.63,17.78-12.67,4.33-28.26,6.5-46.77,6.5h-27.07v93.5h-41.65V113.87h73.75Zm-2.78,34.19h-29.33v87.86h22.73c13.07,0,24.15-1.51,33.23-4.53,9.08-3.02,15.99-7.83,20.74-14.44,4.74-6.61,7.12-15.27,7.12-25.98,0-14.47-4.43-25.24-13.28-32.31-8.85-7.06-22.59-10.6-41.21-10.6Z"/>
</svg>